HIERARCHY
ROOT Hips
{
  OFFSET -102.467 93.6631 130.069
  CHANNELS 6 Xposition Yposition Zposition Zrotation Xrotation Yrotation
  JOINT LeftUpLeg
  {
    OFFSET 8.64259 1.95398 -2.38835
    CHANNELS 3 Zrotation Xrotation Yrotation
    JOINT LeftLeg
    {
      OFFSET 43.7702 0 0
      CHANNELS 3 Zrotation Xrotation Yrotation
      JOINT LeftFoot
      {
        OFFSET 40.6238 0 0
        CHANNELS 3 Zrotation Xrotation Yrotation
        JOINT LeftToeBase
        {
          OFFSET 12.7242 0 0
          CHANNELS 3 Zrotation Xrotation Yrotation
          End Site
          {
            OFFSET 0 0 0
          }
        }
      }
    }
  }
  JOINT RightUpLeg
  {
    OFFSET -8.2249 1.95398 -2.59336
    CHANNELS 3 Zrotation Xrotation Yrotation
    JOINT RightLeg
    {
      OFFSET 43.5653 0 0
      CHANNELS 3 Zrotation Xrotation Yrotation
      JOINT RightFoot
      {
        OFFSET 40.6238 0 0
        CHANNELS 3 Zrotation Xrotation Yrotation
        JOINT RightToeBase
        {
          OFFSET 12.7242 0 0
          CHANNELS 3 Zrotation Xrotation Yrotation
          End Site
          {
            OFFSET 0 0 0
          }
        }
      }
    }
  }
  JOINT Spine
  {
    OFFSET 0.165834 0.87714 6.61349
    CHANNELS 3 Zrotation Xrotation Yrotation
    JOINT Spine1
    {
      OFFSET 7.38963 1.71661e-005 0
      CHANNELS 3 Zrotation Xrotation Yrotation
      JOINT Spine2
      {
        OFFSET 11.9445 1.14441e-005 0
        CHANNELS 3 Zrotation Xrotation Yrotation
        JOINT Spine3
        {
          OFFSET 14.7254 4.19617e-005 0
          CHANNELS 3 Zrotation Xrotation Yrotation
          JOINT Spine4
          {
            OFFSET 10.9679 0 0
            CHANNELS 3 Zrotation Xrotation Yrotation
            JOINT RightShoulder
            {
              OFFSET 2.46616 -1.6653 3.69651
              CHANNELS 3 Zrotation Xrotation Yrotation
              JOINT RightArm
              {
                OFFSET 13.0012 0 0
                CHANNELS 3 Zrotation Xrotation Yrotation
                JOINT RightForeArm
                {
                  OFFSET 28.7848 1.52588e-005 0
                  CHANNELS 3 Zrotation Xrotation Yrotation
                  JOINT RightHand
                  {
                    OFFSET 26.5688 1.52588e-005 0
                    CHANNELS 3 Zrotation Xrotation Yrotation
                    End Site
                    {
                      OFFSET 0 0 0
                    }
                  }
                }
              }
            }
            JOINT LeftShoulder
            {
              OFFSET 2.38034 -1.29275 -3.7523
              CHANNELS 3 Zrotation Xrotation Yrotation
              JOINT LeftArm
              {
                OFFSET 16.3182 6.10351e-005 0
                CHANNELS 3 Zrotation Xrotation Yrotation
                JOINT LeftForeArm
                {
                  OFFSET 27.0901 0 0
                  CHANNELS 3 Zrotation Xrotation Yrotation
                  JOINT LeftHand
                  {
                    OFFSET 24.5451 1.52588e-005 0
                    CHANNELS 3 Zrotation Xrotation Yrotation
                    End Site
                    {
                      OFFSET 0 0 0
                    }
                  }
                }
              }
            }
            JOINT Neck
            {
              OFFSET 5.0226 -0.0266342 0
              CHANNELS 3 Zrotation Xrotation Yrotation
              JOINT Head
              {
                OFFSET 6.69363 2.86102e-005 0
                CHANNELS 3 Zrotation Xrotation Yrotation
                End Site
                {
                  OFFSET 0 0 0
                }
              }
            }
          }
        }
      }
    }
  }
}
MOTION
Frames:	18
Frame Time:	0.0416667
8.94391 90.0469 3.03315 100.066 -29.7831 94.9773 -174.937 -9.77936 86.9047 -39.4217 12.5608 3.89594 82.3985 18.4666 8.05077 50.9806 -0.611366 7.59419 175.796 29.3474 82.7393 -8.30825 -8.365 1.17031 38.6668 14.4023 21.5672 26.3994 -0.444612 -7.10876 -1.32206 9.22243 -89.9833 8.4275 -2.6308 0.186295 -3.24084 -2.62004 0.301974 -25.7964 -2.56508 -0.613528 -5.78371 -2.56506 -0.613517 102.796 -50.5398 -81.1907 28.1637 -8.87794 8.9309 2.77091 -3.58841 -3.65002 -14.9733 -1.0667 3.19643 -86.1781 -47.8738 83.8992 -18.9982 17.9715 -13.2748 23.1253 -1.9011 -72.4828 -0.433725 -0.147052 -7.70713 30.1312 -4.57467 -6.21114 -24.3649 -2.34968 2.80088 
18.6389 89.0814 11.6408 93.7079 -25.4793 92.4857 -176.257 -9.82917 90.6826 -41.7077 11.886 7.07664 77.8563 8.98661 -3.17508 56.5672 -0.859374 7.74105 173.764 31.0362 83.3421 -8.04452 -7.85557 1.65296 34.5191 15.3524 19.4271 33.4496 -2.93956 -8.63989 -1.59772 8.59398 -90.6853 9.67051 -3.49479 -1.08645 -1.99607 -3.5392 -0.931425 -24.5572 -3.00664 -2.08725 -4.54458 -3.00664 -2.08724 101.848 -50.4376 -82.66 27.7288 -11.1797 5.18671 2.58252 2.16329 -10.2426 -12.2871 -0.570299 0.21863 -86.3364 -48.934 83.8195 -23.547 14.1372 -13.5775 17.4734 12.4044 -47.7106 1.38455 -0.143475 -5.98404 33.452 -2.78878 -0.848283 -26.8869 -2.58929 1.49131 
28.5857 89.0714 20.8163 92.5209 -24.082 92.8641 -178.273 -6.53734 94.2424 -51.1705 10.788 7.43708 56.5719 -2.65921 -8.53125 53.1881 -3.7034 -2.89666 172.663 37.3919 85.3959 -36.9606 -12.4615 4.17524 60.7456 3.08705 6.74896 15.8156 3.19139 1.13291 -1.36713 8.36056 -91.3243 10.1112 -3.32732 -2.35164 -1.55742 -3.42758 -2.20288 -24.0958 -2.46715 -3.24268 -4.08312 -2.46718 -3.24269 101.225 -49.7312 -83.6401 25.2273 -15.4427 0.657512 2.86967 3.23182 -18.0451 -16.3066 -0.522086 -1.51969 -86.7105 -50.6 83.5129 -25.3607 9.77511 -11.5288 9.46893 21.9072 -24.969 0.289344 -0.13116 -6.11667 36.8736 -1.26913 2.57126 -30.4822 -2.4975 0.33597 
37.9345 88.4003 29.0958 95.1843 -28.9567 94.6652 178.222 2.12542 89.5755 -74.6635 7.24379 5.70393 54.3395 -0.105958 1.2377 53.813 -1.08073 6.43172 172.81 36.2009 89.7491 -52.6632 -17.26 2.93778 64.7297 -2.24904 0.388123 31.3441 -0.117949 2.8986 -0.567899 8.66239 -91.5628 9.51696 -1.83625 -2.96135 -2.15584 -1.96476 -2.87774 -24.6671 -0.861911 -3.37584 -4.65441 -0.861913 -3.37583 99.8357 -47.5672 -85.9178 22.7674 -15.6488 -9.27559 -0.93854 -3.12896 -23.8406 -18.3845 -0.620913 -1.30885 -86.6039 -51.7009 83.8382 -21.8779 5.09823 -6.09528 5.27752 21.9163 -15.2636 -3.38126 -0.0736758 -6.30911 35.8176 -0.312645 4.75224 -28.5127 -2.16857 -1.46451 
46.296 89.3484 37.1513 95.3601 -29.6839 94.6389 175.82 20.0156 89.4792 -94.4453 4.23959 4.00586 55.7272 1.63216 0.516387 50.0823 -1.43573 4.22086 172.298 29.2058 91.3849 -55.4471 -19.6017 3.34783 68.2689 -8.25917 -6.55508 42.885 -1.81012 5.43615 -0.0246648 8.54209 -91.694 9.76196 -0.815727 -3.29508 -1.91283 -0.959863 -3.25606 -24.4142 0.211654 -3.38785 -4.40151 0.211655 -3.38785 98.2023 -44.2683 -88.8212 21.0442 -13.5251 -16.6645 -6.41076 -7.63072 -31.4806 -17.3651 -0.56025 -1.48743 -85.3502 -51.9736 85.7333 -16.8334 1.86577 -0.664755 5.2758 19.6162 -14.6327 -3.27271 -0.0808694 -5.4346 31.6547 -1.18365 8.43246 -27.9107 -4.05057 -2.99881 
54.6133 94.3342 45.4973 96.1694 -28.3556 90.1959 178.86 35.1528 82.1846 -98.7089 5.18926 3.04035 56.3133 2.36998 2.46606 48.0588 -1.34797 3.87455 174.314 14.9154 88.104 -45.3074 -19.0175 1.04548 70.2549 -7.26811 -3.91296 41.2855 -3.41621 -1.37836 0.284108 8.41647 -91.0115 10.0375 0.106233 -2.01657 -1.63502 0.017419 -2.01931 -24.1588 0.707284 -1.8915 -4.14615 0.707276 -1.89151 98.6181 -42.1704 -88.2872 19.9097 -14.5427 -19.6592 -7.28437 -4.12619 -39.4174 -17.1922 -0.27508 -3.39009 -84.6257 -48.7838 86.4198 -13.4792 -0.102498 4.06493 5.83576 14.7967 -17.282 -1.89498 -0.099656 -6.56032 27.737 -4.79715 7.59826 -27.6848 -6.33526 -5.74305 
63.2136 101.109 53.0298 97.2715 -29.1134 87.1862 -176.703 42.2346 74.8827 -91.1028 4.80322 2.18772 56.9432 0.663355 -0.70845 46.7591 -1.35319 3.36879 174.573 3.56198 85.2633 -32.3074 -16.1947 -1.26055 55.1012 7.85826 9.86554 32.0421 -1.62347 -4.55965 0.679556 8.235 -90.4245 10.4045 1.15939 -0.942887 -1.26634 1.11674 -0.993005 -23.8041 1.38914 -0.550825 -3.79144 1.38911 -0.550839 99.7296 -40.6887 -86.4542 19.834 -18.082 -18.9641 -10.2014 -2.69109 -47.312 -14.1 -0.165317 -3.89391 -84.1719 -46.7774 86.8744 -9.9751 -0.523867 6.96511 4.66312 10.257 -17.8353 -0.706559 -0.121685 -6.52031 20.1017 -7.81569 6.16855 -26.1539 -7.81772 -8.73131 
71.2847 106.414 60.148 98.0416 -32.8031 88.5492 -175.833 42.5478 74.5119 -80.515 2.37044 1.28482 55.4377 -1.73297 -3.93403 43.798 -1.39896 1.75986 174.922 1.4054 85.7592 -26.5158 -16.0239 -1.0473 46.6898 12.5558 17.4128 16.5734 2.69875 -4.23277 1.05348 8.21166 -90.5339 10.4605 1.8537 -1.22463 -1.20977 1.79801 -1.30505 -23.7542 2.13603 -0.610729 -3.74152 2.13602 -0.610737 99.4206 -39.1401 -87.1031 19.0311 -21.3897 -17.2052 -14.4809 -0.167001 -58.1558 -11.3281 -0.0783355 -4.6603 -82.8409 -46.3296 88.9321 -9.0133 -1.6121 10.0489 3.98086 6.491 -18.3765 0.881815 -0.145787 -6.31657 17.5018 -7.58977 7.00182 -25.5142 -7.60636 -9.74113 
79.3505 109.425 67.5555 98.311 -35.2421 88.7917 -176.551 38.0397 74.7209 -67.5975 -0.304404 0.347365 56.7539 -1.97618 -7.14488 38.7687 -1.1973 -0.222837 174.295 3.15969 85.798 -20.9096 -8.15396 -0.00537997 53.1123 10.8487 17.2333 24.1097 0.831704 -2.30771 1.171 8.24197 -90.4676 10.4007 2.11835 -1.1144 -1.2691 2.06727 -1.20659 -23.8173 2.35531 -0.425945 -3.80462 2.35532 -0.425941 99.0838 -39.1034 -87.7102 18.3824 -24.1218 -16.4112 -15.2636 3.87874 -67.867 -11.7401 -0.0350851 -5.03217 -82.8857 -43.8963 88.6128 -10.0056 -2.6396 14.0178 3.72707 3.71873 -19.2696 3.12876 -0.182153 -6.26787 18.0996 -6.9768 6.8548 -26.4563 -6.75185 -10.5481 
87.3662 108.635 74.9722 96.8761 -39.211 88.495 -176.507 35.0331 76.159 -53.9144 3.33393 -1.15102 57.4795 -1.70984 -5.77563 38.6066 -1.19758 -0.340431 174.815 5.12857 86.6546 -13.1942 -3.28751 0.609713 49.8723 12.5153 17.0717 32.0948 -2.14794 -6.88994 1.35109 8.12002 -90.4278 10.6468 2.49392 -1.07709 -1.0223 2.44409 -1.18585 -23.5762 2.70226 -0.277273 -3.56357 2.70226 -0.277276 99.032 -40.0443 -87.7309 16.1246 -28.5294 -18.7499 -15.9899 6.96172 -74.2584 -13.305 -0.07353 -4.67601 -82.4676 -44.8709 89.3878 -7.77367 -3.15298 17.2651 3.5424 1.83505 -21.2242 5.30673 -0.193064 -5.89755 18.6168 -5.93013 8.18131 -26.8482 -5.9615 -11.3667 
95.5619 103.685 82.2528 99.7239 -40.5579 91.0738 -179.866 32.138 77.0593 -42.0571 4.47229 -0.413112 59.8029 -0.719429 -4.6668 37.9672 -1.2879 -1.49852 173.876 2.92251 87.6339 -14.5186 -6.43852 1.92749 46.9603 11.9624 15.1823 38.5757 -3.58449 -4.65522 1.37669 8.27213 -90.5174 10.3439 2.50588 -1.24535 -1.3253 2.44863 -1.35447 -23.8789 2.76423 -0.434177 -3.86629 2.76425 -0.434171 98.9358 -39.7943 -87.9225 16.473 -30.8006 -20.5497 -21.7959 8.27432 -77.3023 -9.26371 -0.191946 -2.77239 -82.8498 -45.1182 88.7965 -6.97549 -3.32519 18.1333 3.32015 0.765954 -22.1983 6.73839 -0.0735487 -4.12417 16.7344 -5.68572 9.79204 -25.999 -6.00992 -12.0893 
103.496 97.1335 89.7419 103.517 -40.0041 94.8632 174.879 28.6978 78.8465 -26.7754 6.54006 1.80008 59.6 -0.263541 -4.85204 35.6029 -0.980466 -1.4538 172.674 0.758032 89.2643 -35.4702 -11.8491 2.8663 62.7303 -1.6849 -1.27754 44.1635 -3.31016 1.98845 1.22841 8.56188 -90.6825 9.76333 2.13968 -1.527 -1.90688 2.07043 -1.6197 -24.4534 2.49964 -0.813099 -4.44078 2.49965 -0.813099 98.395 -39.2876 -88.9322 16.3612 -33.4479 -23.6101 -19.5304 9.1838 -78.1381 -12.1122 -0.0311693 -5.12071 -82.2939 -46.7601 89.8329 -5.1935 -3.14844 15.4652 4.09332 2.64394 -22.4568 5.99355 -0.19636 -5.80071 16.3231 -5.2322 10.3823 -24.4505 -6.00333 -11.3164 
111.971 92.0643 98.0423 102.584 -37.8035 97.8145 173.205 27.7037 82.0396 -14.9172 11.0517 2.68045 57.9645 -0.536185 -4.91047 33.3057 -0.595954 -0.684486 173.929 -4.74798 97.3881 -39.5509 -6.77589 3.30513 74.5697 -11.9848 -5.68406 52.6954 -6.66105 -1.83078 1.03656 8.48482 -91.0768 9.91477 1.57725 -2.25596 -1.75729 1.47649 -2.32317 -24.2905 2.18223 -1.67778 -4.27785 2.18224 -1.67778 97.5771 -40.406 -90.2714 16.2815 -35.3579 -24.8122 -18.2885 7.24261 -72.1516 -12.5818 -0.13472 -4.01025 -82.2005 -49.7062 90.225 -6.5771 -5.42554 10.2699 4.00814 0.839757 -21.9915 4.07762 -0.146838 -5.37203 17.0259 -5.01836 10.2193 -23.5037 -6.01117 -10.7017 
120.83 89.9384 107.585 96.7238 -42.4571 93.8429 175.85 31.958 83.7998 -13.0351 9.00791 1.71233 59.2504 0.341137 -2.10281 28.8405 -0.0642298 -0.867959 175.341 -10.3655 96.4257 -36.6231 -8.7112 1.34915 73.9924 -9.71577 -2.59223 61.3207 -8.67301 -0.76628 1.32079 7.8787 -90.6047 11.1316 2.3482 -1.43203 -0.538166 2.28289 -1.53402 -23.0885 2.66995 -0.659729 -3.07587 2.66994 -0.659737 97.4677 -42.4147 -90.2437 18.6537 -37.9162 -24.422 -17.388 0.213816 -55.8578 -5.82488 0.0312649 -6.38321 -81.6516 -52.2651 91.2345 -10.5826 -5.68289 5.73289 2.80789 -2.17157 -24.74 2.73566 -0.113811 -4.89161 18.8862 -5.2296 6.71673 -26.3189 -5.22425 -9.7298 
129.891 88.6867 117.545 94.0821 -45.6741 89.1211 177.938 36.4535 82.1234 -27.417 5.7998 0.96928 57.5535 -0.75479 1.36581 33.4564 -0.277292 2.60173 172.459 -12.1479 88.0762 -40.2588 -12.7219 -0.104824 62.9537 2.94838 11.2162 55.1047 -3.45999 6.41831 1.10016 7.75853 -89.613 11.3471 2.36979 0.537896 -0.321776 2.39117 0.433016 -22.8698 2.09853 1.22551 -2.85717 2.09854 1.22551 97.6789 -44.908 -89.6377 22.7224 -37.4252 -24.5477 -9.15739 -8.88608 -35.6479 -9.43245 -0.0847265 -4.45174 -83.803 -54.1176 88.2403 -12.593 -0.972953 -0.487067 1.87173 -0.878485 -23.1073 5.16697 -0.251769 -6.86454 26.1436 -5.75462 2.24751 -31.5922 -4.61708 -7.24819 
137.871 86.846 126.963 96.2641 -40.8418 89.8473 -178.754 37.573 78.5652 -46.1574 13.0781 -0.302063 58.3274 2.11419 9.91476 33.6363 -0.400991 1.30477 169.179 -2.94581 90.8995 -66.5522 -18.3567 0.0275993 52.5771 6.33312 7.81216 25.9762 -0.167846 -4.77144 0.299747 8.23703 -89.1857 10.389 0.969663 1.53101 -1.28252 1.0361 1.48685 -23.8103 0.464813 1.75158 -3.79768 0.464809 1.75157 98.7073 -47.6471 -87.7188 26.0298 -29.8802 -16.425 -6.76568 -11.4814 -29.4705 -11.2849 -0.350019 -1.54735 -87.4389 -53.1523 82.8356 -15.6861 5.8113 -13.0094 2.85014 6.22722 -23.2481 1.29432 -0.174886 -7.04475 32.7157 -7.16471 2.04669 -32.7157 -5.80159 -7.57233 
145.716 86.7529 135.64 99.385 -38.2792 92.2829 -176.155 31.3007 78.6506 -56.489 14.7193 -0.602836 67.587 10.1913 12.4058 34.9439 -0.799185 -0.539075 167.346 12.7801 84.6489 -100.73 -17.0621 -2.09322 50.5278 5.02853 3.9258 23.7728 1.50568 3.08239 -0.45106 8.67393 -88.9927 9.52433 -0.445358 2.02987 -2.14814 -0.355596 2.04749 -24.6735 -1.03472 1.8023 -4.66082 -1.03472 1.80231 99.6521 -48.572 -86.1608 24.6991 -21.552 -11.2684 -7.48033 -13.2119 -27.6496 -12.1065 -0.500226 -0.387278 -88.3785 -50.7917 81.052 -14.8332 13.029 -29.3032 5.17143 15.9674 -25.8543 -3.46221 -0.0664745 -7.05945 30.8854 -7.91511 -0.754092 -28.9035 -5.76054 -6.79418 
153.575 89.6209 143.792 99.4776 -38.3202 96.323 -177.046 22.1831 83.8551 -55.6378 16.4992 1.3915 71.0588 12.5964 12.3497 40.2001 -0.946269 2.31146 166.534 33.5195 89.2124 -120.113 -18.6885 -3.18352 49.3679 5.39378 4.23578 27.2499 0.427198 0.442807 -1.01946 8.58427 -89.2974 9.7154 -1.7144 1.52834 -1.95541 -1.64549 1.6023 -24.4963 -2.09443 0.942358 -4.4837 -2.09443 0.942354 100.55 -47.4952 -84.7684 23.2067 -14.104 -6.27721 -8.6471 -12.8685 -29.4199 -15.0478 -0.846432 1.37301 -88.087 -47.3803 80.8548 -14.5417 17.9528 -37.5941 8.65065 15.6004 -34.8848 -1.88216 -0.0991324 -6.38201 27.0783 -6.88083 -2.74925 -28.7367 -4.46918 -5.05659 
